<?xml version="1.0" encoding="utf-8"?>
<!-- Generator: Adobe Illustrator 19.0.0, SVG Export Plug-In . SVG Version: 6.00 Build 0)  -->
<svg version="1.1" id="Layer_1" xmlns="http://www.w3.org/2000/svg" xmlns:xlink="http://www.w3.org/1999/xlink" x="0px" y="0px"
	 viewBox="42 123.6 680.3 595.3" style="enable-background:new 42 123.6 680.3 595.3;" xml:space="preserve">
<style type="text/css">
	.st0{fill:#EC008C;}
	.st1{fill:none;stroke:#EC008C;stroke-miterlimit:10;}
	.st2{fill:none;}
</style>
<path d="M705.1,153.2h-32.2c-2.4,0-4.3,1.9-4.3,4.3v7.1c0,2.2,1.6,3.9,3.7,4.2H691c0.2,0,0.3,0,0.5,0c1.3,0.2,2.4,1.4,2.4,2.8v38.1
	c1.1,1.6,1.8,3.6,1.8,5.7c0,2.1-0.7,4.1-1.8,5.7v143.3c0,1.6-1.3,2.8-2.8,2.8h-42.6c-1.7,1.2-3.7,2-5.9,2s-4.3-0.7-5.9-2H569
	c-1.7,1.2-3.7,2-5.9,2s-4.3-0.7-5.9-2h-13.6c-1.6,0-2.8-1.3-2.8-2.8v-147c-1.1-1.6-1.8-3.6-1.8-5.7c0-2.1,0.7-4.1,1.8-5.7v-34.4
	c0-1.6,1.3-2.8,2.8-2.8h6.6V166c0-1.6,1.3-2.8,2.8-2.8h24.1c1.6,0,2.8,1.3,2.8,2.8v2.8h48.2c2.1-0.3,3.7-2.1,3.7-4.2v-7.1
	c0-2.4-1.9-4.3-4.3-4.3h-98.2c-2.4,0-4.3,1.9-4.3,4.3v221.1c0,2.4,1.9,4.3,4.3,4.3H705c2.3,0,4.3-1.9,4.3-4.3V157.5
	C709.4,155.1,707.5,153.2,705.1,153.2z M534.6,158.2c2.5,0,4.5,2,4.5,4.5s-2,4.5-4.5,4.5s-4.5-2-4.5-4.5S532.1,158.2,534.6,158.2z
	 M534.6,377.9c-2.5,0-4.5-2-4.5-4.5s2-4.5,4.5-4.5s4.5,2,4.5,4.5C539.2,375.8,537.1,377.9,534.6,377.9z M699.9,377.9
	c-2.5,0-4.5-2-4.5-4.5s2-4.5,4.5-4.5s4.5,2,4.5,4.5C704.4,375.8,702.4,377.9,699.9,377.9z M699.9,167.3c-1.2,0-2.3-0.5-3.1-1.3
	c-0.9-0.8-1.4-2-1.4-3.3c0-1.4,0.6-2.7,1.6-3.5c0.8-0.6,1.8-1,2.9-1c2.5,0,4.5,2,4.5,4.5C704.4,165.2,702.4,167.3,699.9,167.3z"/>
<g>
	<path class="st0" d="M296.8,143.5v-8.6h3c0.7,0,1.2,0,1.5,0.1c0.5,0.1,0.9,0.3,1.3,0.6c0.5,0.4,0.8,0.9,1,1.5s0.3,1.3,0.3,2
		s-0.1,1.2-0.2,1.7s-0.3,0.9-0.6,1.3s-0.5,0.6-0.8,0.8s-0.6,0.3-1,0.4c-0.4,0.1-0.9,0.1-1.4,0.1L296.8,143.5L296.8,143.5z
		 M297.9,142.5h1.8c0.6,0,1-0.1,1.3-0.2c0.3-0.1,0.6-0.3,0.8-0.4c0.3-0.3,0.5-0.6,0.6-1.1s0.2-1,0.2-1.7c0-0.9-0.1-1.6-0.4-2.1
		s-0.7-0.8-1.1-1c-0.3-0.1-0.8-0.2-1.5-0.2h-1.8L297.9,142.5L297.9,142.5z"/>
	<path class="st0" d="M305.6,143.5v-8.6h1.1v8.6H305.6z"/>
	<path class="st0" d="M308.4,140.8l1.1-0.1c0.1,0.4,0.2,0.8,0.4,1.1s0.5,0.5,0.9,0.7s0.8,0.3,1.3,0.3c0.4,0,0.8-0.1,1.1-0.2
		c0.3-0.1,0.6-0.3,0.7-0.5c0.2-0.2,0.2-0.5,0.2-0.7c0-0.3-0.1-0.5-0.2-0.7s-0.4-0.4-0.8-0.5c-0.2-0.1-0.7-0.2-1.5-0.4
		s-1.3-0.4-1.7-0.5c-0.4-0.2-0.7-0.5-0.9-0.8s-0.3-0.7-0.3-1.1c0-0.4,0.1-0.8,0.4-1.2s0.6-0.7,1.1-0.9s1-0.3,1.6-0.3
		s1.2,0.1,1.7,0.3s0.9,0.5,1.1,0.9s0.4,0.9,0.4,1.4l-1.1,0.1c-0.1-0.5-0.3-1-0.6-1.2c-0.3-0.3-0.8-0.4-1.5-0.4s-1.2,0.1-1.5,0.4
		s-0.5,0.6-0.5,0.9c0,0.3,0.1,0.6,0.3,0.8c0.2,0.2,0.8,0.4,1.7,0.6s1.6,0.4,1.9,0.5c0.5,0.2,0.9,0.5,1.1,0.9s0.4,0.8,0.4,1.2
		c0,0.5-0.1,0.9-0.4,1.3c-0.3,0.4-0.6,0.7-1.1,0.9s-1,0.3-1.7,0.3c-0.8,0-1.4-0.1-2-0.3c-0.5-0.2-0.9-0.6-1.2-1
		S308.4,141.3,308.4,140.8z"/>
	<path class="st0" d="M319,143.5v-7.6h-2.8v-1h6.8v1h-2.8v7.6H319z"/>
</g>
<g>
	<path class="st0" d="M531.7,134.9h1.1v5c0,0.9-0.1,1.5-0.3,2.1c-0.2,0.5-0.5,0.9-1.1,1.2c-0.5,0.3-1.2,0.5-2,0.5s-1.5-0.1-2-0.4
		c-0.5-0.3-0.9-0.7-1.1-1.2c-0.2-0.5-0.3-1.2-0.3-2.2v-5h1.1v5c0,0.7,0.1,1.3,0.2,1.6s0.4,0.6,0.7,0.8s0.8,0.3,1.2,0.3
		c0.8,0,1.4-0.2,1.8-0.6c0.4-0.4,0.5-1.1,0.5-2.2L531.7,134.9L531.7,134.9z"/>
	<path class="st0" d="M534.3,140.8l1.1-0.1c0.1,0.4,0.2,0.8,0.4,1.1s0.5,0.5,0.9,0.7s0.8,0.3,1.3,0.3c0.4,0,0.8-0.1,1.1-0.2
		c0.3-0.1,0.6-0.3,0.7-0.5c0.2-0.2,0.2-0.5,0.2-0.7c0-0.3-0.1-0.5-0.2-0.7s-0.4-0.4-0.8-0.5c-0.2-0.1-0.7-0.2-1.5-0.4
		s-1.3-0.4-1.7-0.5c-0.4-0.2-0.7-0.5-0.9-0.8s-0.3-0.7-0.3-1.1c0-0.4,0.1-0.8,0.4-1.2s0.6-0.7,1.1-0.9s1-0.3,1.6-0.3
		s1.2,0.1,1.7,0.3s0.9,0.5,1.1,0.9s0.4,0.9,0.4,1.4l-1.1,0.1c-0.1-0.5-0.3-1-0.6-1.2c-0.3-0.3-0.8-0.4-1.5-0.4s-1.2,0.1-1.5,0.4
		c-0.3,0.3-0.5,0.6-0.5,0.9c0,0.3,0.1,0.6,0.3,0.8s0.8,0.4,1.7,0.6s1.6,0.4,1.9,0.5c0.5,0.2,0.9,0.5,1.1,0.9
		c0.2,0.4,0.4,0.8,0.4,1.2c0,0.5-0.1,0.9-0.4,1.3c-0.3,0.4-0.6,0.7-1.1,0.9s-1,0.3-1.7,0.3c-0.8,0-1.4-0.1-2-0.3
		c-0.5-0.2-0.9-0.6-1.2-1S534.4,141.3,534.3,140.8z"/>
	<path class="st0" d="M542.7,143.5v-8.6h3.2c0.7,0,1.2,0.1,1.6,0.3c0.4,0.2,0.7,0.4,0.9,0.8s0.3,0.7,0.3,1.1c0,0.4-0.1,0.7-0.3,1
		s-0.5,0.6-0.9,0.8c0.5,0.2,0.9,0.4,1.2,0.8s0.4,0.8,0.4,1.3c0,0.4-0.1,0.8-0.3,1.1s-0.4,0.6-0.6,0.8c-0.3,0.2-0.6,0.3-0.9,0.4
		c-0.4,0.1-0.8,0.1-1.4,0.1L542.7,143.5L542.7,143.5z M543.8,138.5h1.9c0.5,0,0.9,0,1.1-0.1c0.3-0.1,0.5-0.2,0.7-0.4
		c0.1-0.2,0.2-0.4,0.2-0.8c0-0.3-0.1-0.5-0.2-0.8c-0.1-0.2-0.3-0.4-0.6-0.4c-0.3-0.1-0.7-0.1-1.3-0.1h-1.7L543.8,138.5L543.8,138.5z
		 M543.8,142.5h2.1c0.4,0,0.6,0,0.8,0c0.3,0,0.5-0.1,0.7-0.2c0.2-0.1,0.3-0.3,0.4-0.5c0.1-0.2,0.2-0.4,0.2-0.7s-0.1-0.6-0.2-0.8
		c-0.2-0.2-0.4-0.4-0.7-0.5s-0.7-0.1-1.3-0.1h-2V142.5L543.8,142.5z"/>
</g>
<g>
	<path class="st0" d="M296.4,435.6l1.1-0.1c0.1,0.4,0.2,0.8,0.4,1.1s0.5,0.5,0.9,0.7s0.8,0.3,1.3,0.3c0.4,0,0.8-0.1,1.1-0.2
		s0.6-0.3,0.7-0.5s0.2-0.5,0.2-0.7c0-0.3-0.1-0.5-0.2-0.7s-0.4-0.4-0.8-0.5c-0.2-0.1-0.7-0.2-1.5-0.4s-1.3-0.4-1.7-0.5
		c-0.4-0.2-0.7-0.5-0.9-0.8s-0.3-0.7-0.3-1.1s0.1-0.8,0.4-1.2c0.2-0.4,0.6-0.7,1.1-0.9s1-0.3,1.6-0.3s1.2,0.1,1.7,0.3
		s0.9,0.5,1.1,0.9s0.4,0.9,0.4,1.4l-1.1,0.1c-0.1-0.5-0.3-1-0.6-1.2s-0.8-0.4-1.5-0.4s-1.2,0.1-1.5,0.4s-0.5,0.6-0.5,0.9
		s0.1,0.6,0.3,0.8c0.2,0.2,0.8,0.4,1.7,0.6s1.6,0.4,1.9,0.5c0.5,0.2,0.9,0.5,1.1,0.9s0.4,0.8,0.4,1.2c0,0.5-0.1,0.9-0.4,1.3
		s-0.6,0.7-1.1,0.9s-1,0.3-1.7,0.3c-0.8,0-1.4-0.1-2-0.3s-0.9-0.6-1.2-1S296.4,436.1,296.4,435.6z"/>
	<path class="st0" d="M304.4,434.1c0-1.4,0.4-2.5,1.1-3.3s1.8-1.2,3-1.2c0.8,0,1.5,0.2,2.1,0.6s1.1,0.9,1.5,1.6s0.5,1.4,0.5,2.3
		s-0.2,1.6-0.5,2.3s-0.9,1.2-1.5,1.6s-1.3,0.5-2.1,0.5c-0.8,0-1.5-0.2-2.2-0.6s-1.1-0.9-1.4-1.6S304.4,434.9,304.4,434.1z
		 M305.6,434.2c0,1,0.3,1.9,0.8,2.4s1.3,0.9,2.1,0.9c0.9,0,1.6-0.3,2.1-0.9s0.8-1.5,0.8-2.6c0-0.7-0.1-1.3-0.4-1.8s-0.6-0.9-1-1.2
		s-1-0.4-1.5-0.4c-0.8,0-1.5,0.3-2.1,0.8S305.6,432.9,305.6,434.2z"/>
	<path class="st0" d="M314.1,438.3v-8.6h1.1v7.6h4.2v1H314.1z"/>
	<path class="st0" d="M321,438.3v-8.6h1.1v8.6H321z"/>
	<path class="st0" d="M324.1,438.3v-8.6h3c0.7,0,1.2,0,1.5,0.1c0.5,0.1,0.9,0.3,1.3,0.6c0.5,0.4,0.8,0.9,1,1.5s0.3,1.3,0.3,2
		s-0.1,1.2-0.2,1.7s-0.3,0.9-0.6,1.3s-0.5,0.6-0.8,0.8s-0.6,0.3-1,0.4s-0.9,0.1-1.4,0.1L324.1,438.3L324.1,438.3z M325.3,437.3h1.8
		c0.6,0,1-0.1,1.3-0.2s0.6-0.3,0.8-0.4c0.3-0.3,0.5-0.6,0.6-1.1s0.2-1,0.2-1.7c0-0.9-0.1-1.6-0.4-2.1s-0.7-0.8-1.1-1
		c-0.3-0.1-0.8-0.2-1.5-0.2h-1.8L325.3,437.3L325.3,437.3z"/>
</g>
<g>
	<path class="st0" d="M58,438.3v-7.6h-2.8v-1H62v1h-2.8v7.6H58z"/>
	<path class="st0" d="M63.2,438.3v-8.6h6.2v1h-5.1v2.6h4.8v1h-4.8v2.9h5.3v1L63.2,438.3L63.2,438.3z"/>
	<path class="st0" d="M71.2,438.3v-8.6H75c0.8,0,1.3,0.1,1.7,0.2c0.4,0.2,0.7,0.4,1,0.8c0.2,0.4,0.4,0.8,0.4,1.3
		c0,0.6-0.2,1.1-0.6,1.5c-0.4,0.4-1,0.7-1.8,0.8c0.3,0.1,0.5,0.3,0.7,0.4c0.3,0.3,0.6,0.7,0.9,1.1l1.5,2.3h-1.4l-1.1-1.8
		c-0.3-0.5-0.6-0.9-0.8-1.2c-0.2-0.3-0.4-0.5-0.6-0.6s-0.3-0.2-0.5-0.2c-0.1,0-0.3,0-0.6,0h-1.3v3.8L71.2,438.3L71.2,438.3z
		 M72.3,433.5h2.4c0.5,0,0.9-0.1,1.2-0.2c0.3-0.1,0.5-0.3,0.7-0.5s0.2-0.5,0.2-0.8c0-0.4-0.1-0.7-0.4-1s-0.8-0.4-1.4-0.4h-2.7
		L72.3,433.5L72.3,433.5z"/>
	<path class="st0" d="M79.8,438.3v-8.6h1.7l2,6.1c0.2,0.6,0.3,1,0.4,1.3c0.1-0.3,0.3-0.8,0.5-1.4l2.1-6H88v8.6h-1.1v-7.2l-2.5,7.2
		h-1l-2.5-7.3v7.3H79.8L79.8,438.3z"/>
</g>
<g>
	<path class="st0" d="M55.8,143.5v-8.6H59c0.7,0,1.2,0.1,1.6,0.3c0.4,0.2,0.7,0.4,0.9,0.8s0.3,0.7,0.3,1.1c0,0.4-0.1,0.7-0.3,1
		s-0.5,0.6-0.9,0.8c0.5,0.2,0.9,0.4,1.2,0.8s0.4,0.8,0.4,1.3c0,0.4-0.1,0.8-0.3,1.1s-0.4,0.6-0.6,0.8c-0.3,0.2-0.6,0.3-0.9,0.4
		c-0.4,0.1-0.8,0.1-1.4,0.1L55.8,143.5L55.8,143.5z M56.9,138.5h1.9c0.5,0,0.9,0,1.1-0.1c0.3-0.1,0.5-0.2,0.7-0.4
		c0.1-0.2,0.2-0.4,0.2-0.8c0-0.3-0.1-0.5-0.2-0.8c-0.1-0.2-0.3-0.4-0.6-0.4c-0.3-0.1-0.7-0.1-1.3-0.1H57L56.9,138.5L56.9,138.5z
		 M56.9,142.5H59c0.4,0,0.6,0,0.8,0c0.3,0,0.5-0.1,0.7-0.2c0.2-0.1,0.3-0.3,0.4-0.5c0.1-0.2,0.2-0.4,0.2-0.7s-0.1-0.6-0.2-0.8
		c-0.2-0.2-0.4-0.4-0.7-0.5s-0.7-0.1-1.3-0.1h-2C56.9,139.6,56.9,142.5,56.9,142.5z"/>
	<path class="st0" d="M63.5,139.3c0-1.4,0.4-2.5,1.1-3.3c0.8-0.8,1.8-1.2,3-1.2c0.8,0,1.5,0.2,2.1,0.6c0.6,0.4,1.1,0.9,1.5,1.6
		c0.3,0.7,0.5,1.4,0.5,2.3c0,0.9-0.2,1.7-0.5,2.3c-0.4,0.7-0.8,1.2-1.5,1.6c-0.6,0.4-1.3,0.5-2.1,0.5s-1.5-0.2-2.2-0.6
		c-0.6-0.4-1.1-0.9-1.4-1.6S63.5,140.1,63.5,139.3z M64.7,139.4c0,1,0.3,1.9,0.8,2.4s1.3,0.9,2.1,0.9c0.9,0,1.6-0.3,2.1-0.9
		s0.8-1.5,0.8-2.6c0-0.7-0.1-1.3-0.4-1.8c-0.2-0.5-0.6-0.9-1-1.2c-0.5-0.3-1-0.4-1.5-0.4c-0.8,0-1.5,0.3-2.1,0.8
		C65,137.1,64.7,138.1,64.7,139.4z"/>
	<path class="st0" d="M75.4,143.5v-7.6h-2.8v-1h6.8v1h-2.8v7.6H75.4z"/>
</g>
<path d="M234.9,153.2H59.2c-2.3,0-4.3,1.9-4.3,4.3v221.1c0,2.3,1.9,4.3,4.3,4.3h175.7c2.3,0,4.3-1.9,4.3-4.3V157.5
	C239.2,155.1,237.3,153.2,234.9,153.2z M64.4,377.9c-2.5,0-4.5-2-4.5-4.5s2-4.5,4.5-4.5c2.5,0,4.5,2,4.5,4.5
	C68.9,375.8,66.9,377.9,64.4,377.9z M64.4,167.3c-2.5,0-4.5-2-4.5-4.5s2-4.5,4.5-4.5c2.5,0,4.5,2,4.5,4.5
	C68.9,165.2,66.9,167.3,64.4,167.3z M78.6,216.6c-2.5,0-4.5-2-4.5-4.5s2-4.5,4.5-4.5s4.5,2,4.5,4.5
	C83.2,214.5,81.1,216.6,78.6,216.6z M92.9,363.8c-2.5,0-4.5-2-4.5-4.5s2-4.5,4.5-4.5s4.5,2,4.5,4.5S95.4,363.8,92.9,363.8z
	 M172.2,363.8c-2.5,0-4.5-2-4.5-4.5s2-4.5,4.5-4.5s4.5,2,4.5,4.5S174.7,363.8,172.2,363.8z M215.4,219.9c-2.5,0-4.5-2-4.5-4.5
	s2-4.5,4.5-4.5s4.5,2,4.5,4.5C220,217.9,217.9,219.9,215.4,219.9z M229.7,377.9c-2.5,0-4.5-2-4.5-4.5s2-4.5,4.5-4.5s4.5,2,4.5,4.5
	C234.2,375.8,232.2,377.9,229.7,377.9z M229.7,167.3c-2.5,0-4.5-2-4.5-4.5s2-4.5,4.5-4.5s4.5,2,4.5,4.5
	C234.2,165.2,232.2,167.3,229.7,167.3z"/>
<path d="M475.8,153.2h-32.2c-2.3,0-4.3,1.9-4.3,4.3v7.1c0,2.2,1.6,3.9,3.7,4.2h18.6c0.1,0,0.2,0,0.2,0c0.1,0,0.2,0,0.2,0l0,0h0.1
	c0.1,0,0.1,0,0.2,0s0.1,0,0.2,0s0.2,0.1,0.2,0.1c0.1,0,0.2,0.1,0.2,0.1c0.3,0.2,0.6,0.4,0.8,0.7c0.1,0.1,0.1,0.1,0.2,0.2l0.1,0.1
	c0,0.1,0.1,0.1,0.1,0.2c0.1,0.1,0.1,0.3,0.2,0.4c0,0.1,0,0.2,0.1,0.2c0,0.2,0.1,0.4,0.1,0.6v33.8c0,0.2,0,0.3,0,0.5s0,0.3,0,0.5
	c-0.2,0.9-1.1,1.7-2.1,1.7l0,0h-9.2c-2.4,0-4.3,1.9-4.3,4.3v6.2c0,2.3,1.9,4.3,4.3,4.3h9.2l0,0c1,0,1.9,0.7,2.1,1.7
	c0,0.2,0,0.3,0,0.5s0,0.3,0,0.5v139c0,1.6-1.3,2.8-2.8,2.8h-36.5c-0.6,0-1.1-0.2-1.5-0.6s-0.6-0.9-0.6-1.5v-11.8
	c0-2.4-1.9-4.3-4.3-4.3h-11.3c-2.4,0-4.3,1.9-4.3,4.3v11.8l0,0c0,1.2-1,2.1-2.1,2.1h-55.2c-1.2,0-2.1-0.9-2.1-2.1l0,0v-11.8
	c0-2.4-1.9-4.3-4.3-4.3h-11.3c-2.3,0-4.3,1.9-4.3,4.3v11.8c0,1.2-0.9,2.1-2.1,2.1h-7.5c-0.8,0-1.5-0.3-2-0.8s-0.8-1.2-0.8-2V221.6
	c0-0.1,0-0.1,0-0.2c0.1-1.1,1-1.9,2.1-1.9v-0.1h9.1c2.3,0,4.3-1.9,4.3-4.3v-6.2c0-2.4-1.9-4.3-4.3-4.3h-9.1c-1.1,0-2-0.8-2.1-1.9
	c0-0.1,0-0.1,0-0.2v-30.9c0-0.8,0.3-1.5,0.8-2s1.2-0.8,2-0.8h84.5c2.1-0.3,3.7-2,3.7-4.2v-7.1c0-2.4-1.9-4.3-4.3-4.3H300
	c-2.3,0-4.3,1.9-4.3,4.3v221.1c0,2.4,1.9,4.3,4.3,4.3h175.7c2.4,0,4.3-1.9,4.3-4.3V157.5C480.1,155.1,478.2,153.2,475.8,153.2z
	 M456.4,219.9c-2.5,0-4.5-2-4.5-4.5s2-4.5,4.5-4.5s4.5,2,4.5,4.5S458.9,219.9,456.4,219.9z M319.6,207.5c2.5,0,4.5,2,4.5,4.5
	s-2,4.5-4.5,4.5s-4.5-2-4.5-4.5C315,209.5,317.1,207.5,319.6,207.5z M305.3,158.2c2.5,0,4.5,2,4.5,4.5s-2,4.5-4.5,4.5
	s-4.5-2-4.5-4.5S302.8,158.2,305.3,158.2z M308.6,376.5c-0.8,0.8-2,1.3-3.2,1.3s-2.4-0.5-3.2-1.3c-0.8-0.8-1.3-2-1.3-3.2
	c0-2.5,2-4.5,4.5-4.5s4.5,2,4.5,4.5C309.9,374.6,309.4,375.7,308.6,376.5z M333.8,354.7c2.5,0,4.5,2,4.5,4.5s-2,4.5-4.5,4.5
	s-4.5-2-4.5-4.5S331.3,354.7,333.8,354.7z M413.1,354.7c2.5,0,4.5,2,4.5,4.5s-2,4.5-4.5,4.5s-4.5-2-4.5-4.5S410.6,354.7,413.1,354.7
	z M466.5,160.8v-0.1c0-0.1,0.1-0.2,0.2-0.3c0.3-0.4,0.6-0.8,1-1.1c0.1-0.1,0.2-0.2,0.4-0.3c0.1-0.1,0.3-0.2,0.4-0.2
	c0.2-0.1,0.4-0.2,0.6-0.3c0.1,0,0.2-0.1,0.3-0.1c0.2,0,0.4-0.1,0.5-0.1s0.2,0,0.3,0c0.1,0,0.3,0,0.4,0c1.3,0,2.4,0.5,3.2,1.3
	c0.8,0.8,1.3,2,1.3,3.2c0,1.3-0.5,2.4-1.3,3.2s-2,1.3-3.2,1.3c-1.1,0-2-0.4-2.8-1c-0.1-0.1-0.2-0.2-0.3-0.3
	c-0.1-0.1-0.2-0.2-0.2-0.3c-0.3-0.4-0.6-0.8-0.8-1.3c-0.2-0.5-0.4-1.1-0.4-1.8C466.1,162,466.2,161.4,466.5,160.8z M466.4,375
	c-0.2-0.5-0.3-1.1-0.3-1.7s0.1-1.2,0.4-1.8c0.7-1.6,2.3-2.8,4.2-2.8c1.3,0,2.4,0.5,3.2,1.3c0.8,0.8,1.3,2,1.3,3.2
	c0,2.5-2,4.5-4.5,4.5c-1.3,0-2.4-0.5-3.2-1.3C467,376.1,466.6,375.6,466.4,375z"/>
<path d="M234.9,448H59.2c-2.4,0-4.3,1.9-4.3,4.3v221.1c0,2.3,1.9,4.3,4.3,4.3h53.9c2.2,0,4-1.7,4.2-3.9c0-0.1,0-0.3,0-0.4v-7.1
	c0-2.3-1.8-4.1-4-4.2h-40c-1.6,0-2.8-1.3-2.8-2.8V466.4c0-1.6,1.3-2.8,2.8-2.8h147.4c1.6,0,2.8,1.3,2.8,2.8v192.8
	c0,1.6-1.3,2.8-2.8,2.8h-39.8c-2.3,0.1-4,2-4,4.2v7.1c0,0.2,0,0.3,0,0.4c0.2,2.2,2,3.9,4.2,3.9h53.8c2.3,0,4.3-1.9,4.3-4.3v-221
	C239.2,449.9,237.3,448,234.9,448z M64.4,672.7c-2.5,0-4.5-2-4.5-4.5s2-4.5,4.5-4.5c2.5,0,4.5,2,4.5,4.5
	C68.9,670.6,66.9,672.7,64.4,672.7z M64.4,462.1c-2.5,0-4.5-2-4.5-4.5s2-4.5,4.5-4.5c2.5,0,4.5,2,4.5,4.5
	C68.9,460,66.9,462.1,64.4,462.1z M229.7,672.7c-2.5,0-4.5-2-4.5-4.5s2-4.5,4.5-4.5s4.5,2,4.5,4.5
	C234.2,670.6,232.2,672.7,229.7,672.7z M229.7,462.1c-2.5,0-4.5-2-4.5-4.5s2-4.5,4.5-4.5s4.5,2,4.5,4.5
	C234.2,460,232.2,462.1,229.7,462.1z"/>
<path d="M475.9,448H300.1c-2.3,0-4.3,1.9-4.3,4.3v221.1c0,2.3,1.9,4.3,4.3,4.3h175.7c2.4,0,4.3-1.9,4.3-4.3V452.3
	C480.1,449.9,478.2,448,475.9,448z M305.4,672.7c-2.5,0-4.5-2-4.5-4.5s2-4.5,4.5-4.5s4.5,2,4.5,4.5S307.9,672.7,305.4,672.7z
	 M305.4,462.1c-2.5,0-4.5-2-4.5-4.5s2-4.5,4.5-4.5s4.5,2,4.5,4.5S307.9,462.1,305.4,462.1z M464.5,659.2c0,1.6-1.3,2.8-2.8,2.8
	H314.3c-1.6,0-2.8-1.3-2.8-2.8V466.4c0-1.6,1.3-2.8,2.8-2.8h147.4c1.6,0,2.8,1.3,2.8,2.8L464.5,659.2L464.5,659.2z M470.6,672.7
	c-2.5,0-4.5-2-4.5-4.5s2-4.5,4.5-4.5s4.5,2,4.5,4.5S473.1,672.7,470.6,672.7z M470.6,462.1c-2.5,0-4.5-2-4.5-4.5s2-4.5,4.5-4.5
	s4.5,2,4.5,4.5S473.1,462.1,470.6,462.1z"/>
<line class="st1" x1="470.7" y1="448" x2="505.7" y2="448"/>
<line class="st1" x1="470.7" y1="677.6" x2="505.7" y2="677.6"/>
<g>
	<line class="st2" x1="505.7" y1="448" x2="505.7" y2="677.6"/>
	<g>
		<line class="st1" x1="505.7" y1="455.1" x2="505.7" y2="670.6"/>
		<g>
			<polygon class="st0" points="505.7,448 501.7,458 505.7,455.6 509.8,458 			"/>
		</g>
		<g>
			<polygon class="st0" points="505.7,677.6 501.7,667.7 505.7,670 509.8,667.7 			"/>
		</g>
	</g>
</g>
<g>
	<path class="st0" d="M513,561.4c-0.4-0.2-0.8-0.4-1-0.7c-0.2-0.3-0.3-0.7-0.3-1.1c0-0.6,0.2-1.1,0.7-1.6c0.4-0.4,1-0.6,1.8-0.6
		s1.4,0.2,1.8,0.7s0.7,1,0.7,1.6c0,0.4-0.1,0.7-0.3,1s-0.5,0.5-1,0.7c0.5,0.2,0.9,0.4,1.2,0.8s0.4,0.8,0.4,1.4
		c0,0.7-0.3,1.4-0.8,1.9s-1.2,0.8-2.1,0.8c-0.8,0-1.5-0.3-2.1-0.8c-0.5-0.5-0.8-1.1-0.8-1.9c0-0.6,0.1-1,0.4-1.4
		C512.1,561.8,512.5,561.5,513,561.4z M512.4,563.6c0,0.3,0.1,0.6,0.2,0.9c0.1,0.3,0.4,0.5,0.6,0.7c0.3,0.2,0.6,0.2,0.9,0.2
		c0.5,0,0.9-0.2,1.2-0.5s0.5-0.7,0.5-1.2s-0.2-0.9-0.5-1.3c-0.3-0.3-0.8-0.5-1.3-0.5s-0.9,0.2-1.2,0.5
		C512.6,562.6,512.4,563.1,512.4,563.6z M512.8,559.6c0,0.4,0.1,0.7,0.4,1s0.6,0.4,1,0.4s0.7-0.1,1-0.4c0.3-0.3,0.4-0.6,0.4-0.9
		c0-0.4-0.1-0.7-0.4-1s-0.6-0.4-1-0.4s-0.7,0.1-1,0.4S512.8,559.2,512.8,559.6z"/>
	<path class="st0" d="M522,566h-1.1v-6.7c-0.3,0.2-0.6,0.5-1,0.7s-0.8,0.4-1.1,0.5v-1c0.6-0.3,1.1-0.6,1.5-1s0.8-0.8,0.9-1.1h0.7
		L522,566L522,566z"/>
	<path class="st0" d="M528.3,566v-6.2h0.9v0.9c0.2-0.3,0.5-0.6,0.8-0.7s0.7-0.3,1.1-0.3c0.5,0,0.8,0.1,1.1,0.3s0.5,0.5,0.6,0.8
		c0.5-0.7,1.1-1.1,1.9-1.1c0.6,0,1.1,0.2,1.4,0.5s0.5,0.9,0.5,1.6v4.3h-1v-4c0-0.4,0-0.7-0.1-0.9s-0.2-0.3-0.4-0.4
		c-0.2-0.1-0.4-0.2-0.6-0.2c-0.4,0-0.8,0.1-1.1,0.4s-0.4,0.8-0.4,1.4v3.6h-1v-4c0-0.5-0.1-0.8-0.3-1.1s-0.5-0.4-0.8-0.4
		s-0.6,0.1-0.8,0.2s-0.4,0.4-0.5,0.7s-0.2,0.7-0.2,1.3v3.2h-1.1V566z"/>
	<path class="st0" d="M538.3,566v-6.2h0.9v0.9c0.2-0.3,0.5-0.6,0.8-0.7c0.3-0.2,0.7-0.3,1.1-0.3c0.5,0,0.8,0.1,1.1,0.3
		s0.5,0.5,0.6,0.8c0.5-0.7,1.1-1.1,1.9-1.1c0.6,0,1.1,0.2,1.4,0.5c0.3,0.3,0.5,0.9,0.5,1.6v4.3h-1v-4c0-0.4,0-0.7-0.1-0.9
		s-0.2-0.3-0.4-0.4s-0.4-0.2-0.6-0.2c-0.4,0-0.8,0.1-1.1,0.4c-0.3,0.3-0.4,0.8-0.4,1.4v3.6h-1v-4c0-0.5-0.1-0.8-0.3-1.1
		s-0.5-0.4-0.8-0.4s-0.6,0.1-0.8,0.2c-0.3,0.2-0.4,0.4-0.5,0.7s-0.2,0.7-0.2,1.3v3.2h-1.1V566z"/>
</g>
<line class="st1" x1="480.1" y1="656.5" x2="480.1" y2="691.5"/>
<line class="st1" x1="295.9" y1="656.5" x2="295.9" y2="691.5"/>
<g>
	<line class="st2" x1="480.1" y1="691.5" x2="295.9" y2="691.5"/>
	<g>
		<line class="st1" x1="473" y1="691.5" x2="302.9" y2="691.5"/>
		<g>
			<polygon class="st0" points="480.1,691.5 470.2,687.4 472.5,691.5 470.2,695.5 			"/>
		</g>
		<g>
			<polygon class="st0" points="295.9,691.5 305.8,687.4 303.4,691.5 305.8,695.5 			"/>
		</g>
	</g>
</g>
<g>
	<path class="st0" d="M375.6,701.1l-1,0.1c-0.1-0.4-0.2-0.7-0.4-0.9c-0.3-0.3-0.6-0.5-1.1-0.5c-0.3,0-0.6,0.1-0.9,0.3
		s-0.6,0.6-0.8,1.1s-0.3,1.1-0.3,2c0.3-0.4,0.6-0.7,0.9-0.9s0.8-0.3,1.2-0.3c0.7,0,1.3,0.3,1.8,0.8s0.7,1.2,0.7,2
		c0,0.5-0.1,1-0.3,1.5s-0.6,0.8-1,1.1s-0.9,0.4-1.4,0.4c-0.9,0-1.6-0.3-2.1-1s-0.8-1.7-0.8-3.2c0-1.7,0.3-2.9,0.9-3.6
		c0.5-0.7,1.3-1,2.2-1c0.7,0,1.2,0.2,1.7,0.6S375.5,700.4,375.6,701.1z M371.3,704.8c0,0.4,0.1,0.7,0.2,1s0.4,0.6,0.6,0.8
		s0.6,0.3,0.9,0.3c0.4,0,0.8-0.2,1.1-0.5s0.5-0.8,0.5-1.5c0-0.6-0.2-1.1-0.5-1.4s-0.7-0.5-1.2-0.5s-0.9,0.2-1.2,0.5
		S371.3,704.2,371.3,704.8z"/>
	<path class="st0" d="M376.8,705.3l1.1-0.1c0.1,0.5,0.3,0.9,0.6,1.2s0.7,0.4,1.1,0.4c0.5,0,0.9-0.2,1.3-0.6s0.5-0.9,0.5-1.5
		s-0.2-1.1-0.5-1.4s-0.8-0.5-1.3-0.5c-0.3,0-0.6,0.1-0.9,0.2s-0.5,0.4-0.6,0.6l-1-0.1l0.8-4.4h4.3v1h-3.4l-0.5,2.3
		c0.5-0.4,1.1-0.5,1.6-0.5c0.8,0,1.4,0.3,1.9,0.8s0.8,1.2,0.8,2s-0.2,1.4-0.7,2c-0.6,0.7-1.3,1-2.3,1c-0.8,0-1.4-0.2-1.9-0.7
		S376.9,706.1,376.8,705.3z"/>
	<path class="st0" d="M387.1,707.6v-6.2h0.9v0.9c0.2-0.3,0.5-0.6,0.8-0.7s0.7-0.3,1.1-0.3c0.5,0,0.8,0.1,1.1,0.3s0.5,0.5,0.6,0.8
		c0.5-0.7,1.1-1.1,1.9-1.1c0.6,0,1.1,0.2,1.4,0.5s0.5,0.9,0.5,1.6v4.3h-1v-3.9c0-0.4,0-0.7-0.1-0.9s-0.2-0.3-0.4-0.4
		s-0.4-0.2-0.6-0.2c-0.4,0-0.8,0.1-1.1,0.4s-0.4,0.8-0.4,1.4v3.6h-1.1v-4c0-0.5-0.1-0.8-0.3-1.1s-0.5-0.4-0.8-0.4s-0.6,0.1-0.8,0.2
		s-0.4,0.4-0.5,0.7s-0.2,0.7-0.2,1.3v3.2L387.1,707.6L387.1,707.6z"/>
	<path class="st0" d="M397.1,707.6v-6.2h0.9v0.9c0.2-0.3,0.5-0.6,0.8-0.7s0.7-0.3,1.1-0.3c0.5,0,0.8,0.1,1.1,0.3s0.5,0.5,0.6,0.8
		c0.5-0.7,1.1-1.1,1.9-1.1c0.6,0,1.1,0.2,1.4,0.5s0.5,0.9,0.5,1.6v4.3h-1v-3.9c0-0.4,0-0.7-0.1-0.9s-0.2-0.3-0.4-0.4
		s-0.4-0.2-0.6-0.2c-0.4,0-0.8,0.1-1.1,0.4s-0.4,0.8-0.4,1.4v3.6h-1.1v-4c0-0.5-0.1-0.8-0.3-1.1s-0.5-0.4-0.8-0.4s-0.6,0.1-0.8,0.2
		s-0.4,0.4-0.5,0.7s-0.2,0.7-0.2,1.3v3.2L397.1,707.6L397.1,707.6z"/>
</g>
</svg>
